{
	"patcher" : 	{
		"fileversion" : 1,
		"rect" : [ 91.0, 44.0, 517.0, 712.0 ],
		"bglocked" : 0,
		"defrect" : [ 91.0, 44.0, 517.0, 712.0 ],
		"openrect" : [ 0.0, 0.0, 0.0, 0.0 ],
		"openinpresentation" : 0,
		"default_fontsize" : 12.0,
		"default_fontface" : 0,
		"default_fontname" : "Arial",
		"gridonopen" : 0,
		"gridsize" : [ 15.0, 15.0 ],
		"gridsnaponopen" : 0,
		"toolbarvisible" : 1,
		"boxanimatetime" : 200,
		"imprint" : 0,
		"enablehscroll" : 1,
		"enablevscroll" : 1,
		"devicewidth" : 0.0,
		"boxes" : [ 			{
				"box" : 				{
					"maxclass" : "message",
					"text" : ";\rmax launchbrowser http://www.giri.it",
					"linecount" : 2,
					"numinlets" : 2,
					"numoutlets" : 1,
					"patching_rect" : [ 286.0, 712.0, 203.0, 32.0 ],
					"outlettype" : [ "" ],
					"id" : "obj-52",
					"fontname" : "Arial",
					"hidden" : 1,
					"fontsize" : 12.0
				}

			}
, 			{
				"box" : 				{
					"maxclass" : "ubutton",
					"numinlets" : 1,
					"handoff" : "",
					"numoutlets" : 4,
					"patching_rect" : [ 364.0, 685.0, 65.0, 21.0 ],
					"outlettype" : [ "bang", "bang", "", "int" ],
					"id" : "obj-53"
				}

			}
, 			{
				"box" : 				{
					"maxclass" : "message",
					"text" : ";\rmax launchbrowser http://www.virtual-sound.com",
					"linecount" : 2,
					"numinlets" : 2,
					"numoutlets" : 1,
					"patching_rect" : [ 12.0, 712.0, 272.0, 32.0 ],
					"outlettype" : [ "" ],
					"id" : "obj-54",
					"fontname" : "Arial",
					"hidden" : 1,
					"fontsize" : 12.0
				}

			}
, 			{
				"box" : 				{
					"maxclass" : "ubutton",
					"numinlets" : 1,
					"handoff" : "",
					"numoutlets" : 4,
					"patching_rect" : [ 133.0, 685.0, 130.0, 20.0 ],
					"outlettype" : [ "bang", "bang", "", "int" ],
					"id" : "obj-55"
				}

			}
, 			{
				"box" : 				{
					"maxclass" : "comment",
					"text" : "VirtualSound Macros - www.virtual-sound.com - (c) Maurizio Giri - www.giri.it",
					"numinlets" : 1,
					"numoutlets" : 0,
					"patching_rect" : [ 11.0, 685.0, 419.0, 20.0 ],
					"id" : "obj-56",
					"fontname" : "Arial",
					"textcolor" : [ 0.168627, 0.305882, 0.721569, 1.0 ],
					"frgb" : [ 0.168627, 0.305882, 0.721569, 1.0 ],
					"fontsize" : 12.0
				}

			}
, 			{
				"box" : 				{
					"maxclass" : "newobj",
					"text" : "loadmess 0.",
					"numinlets" : 1,
					"numoutlets" : 1,
					"patching_rect" : [ 399.0, 218.0, 75.0, 20.0 ],
					"outlettype" : [ "" ],
					"id" : "obj-2",
					"fontname" : "Arial",
					"fontsize" : 12.0
				}

			}
, 			{
				"box" : 				{
					"maxclass" : "inlet",
					"numinlets" : 0,
					"numoutlets" : 1,
					"patching_rect" : [ 482.0, 10.0, 25.0, 25.0 ],
					"outlettype" : [ "" ],
					"id" : "obj-3",
					"comment" : "sin phase (0-1)"
				}

			}
, 			{
				"box" : 				{
					"maxclass" : "outlet",
					"numinlets" : 1,
					"numoutlets" : 0,
					"patching_rect" : [ 225.0, 648.0, 25.0, 25.0 ],
					"id" : "obj-4",
					"comment" : "bang when done"
				}

			}
, 			{
				"box" : 				{
					"maxclass" : "outlet",
					"numinlets" : 1,
					"numoutlets" : 0,
					"patching_rect" : [ 133.0, 648.0, 25.0, 25.0 ],
					"id" : "obj-5",
					"comment" : "sample value"
				}

			}
, 			{
				"box" : 				{
					"maxclass" : "outlet",
					"numinlets" : 1,
					"numoutlets" : 0,
					"patching_rect" : [ 47.0, 647.0, 25.0, 25.0 ],
					"id" : "obj-6",
					"comment" : "sample index"
				}

			}
, 			{
				"box" : 				{
					"maxclass" : "message",
					"text" : "512",
					"numinlets" : 2,
					"numoutlets" : 1,
					"patching_rect" : [ 329.0, 80.0, 32.5, 18.0 ],
					"outlettype" : [ "" ],
					"id" : "obj-7",
					"fontname" : "Arial",
					"fontsize" : 12.0
				}

			}
, 			{
				"box" : 				{
					"maxclass" : "newobj",
					"text" : "sel 0",
					"numinlets" : 2,
					"numoutlets" : 2,
					"patching_rect" : [ 329.0, 58.0, 36.0, 20.0 ],
					"outlettype" : [ "bang", "" ],
					"id" : "obj-8",
					"fontname" : "Arial",
					"fontsize" : 12.0
				}

			}
, 			{
				"box" : 				{
					"maxclass" : "inlet",
					"numinlets" : 0,
					"numoutlets" : 1,
					"patching_rect" : [ 394.0, 10.0, 25.0, 25.0 ],
					"outlettype" : [ "" ],
					"id" : "obj-9",
					"comment" : "table size"
				}

			}
, 			{
				"box" : 				{
					"maxclass" : "inlet",
					"numinlets" : 0,
					"numoutlets" : 1,
					"patching_rect" : [ 212.0, 24.0, 25.0, 25.0 ],
					"outlettype" : [ "" ],
					"id" : "obj-10",
					"comment" : "list, partials"
				}

			}
, 			{
				"box" : 				{
					"maxclass" : "newobj",
					"text" : "/ 2.",
					"numinlets" : 2,
					"numoutlets" : 1,
					"patching_rect" : [ 286.0, 242.0, 32.5, 20.0 ],
					"outlettype" : [ "float" ],
					"id" : "obj-11",
					"fontname" : "Arial",
					"fontsize" : 12.0
				}

			}
, 			{
				"box" : 				{
					"maxclass" : "newobj",
					"text" : "r #0size",
					"numinlets" : 0,
					"numoutlets" : 1,
					"patching_rect" : [ 286.0, 215.0, 53.0, 20.0 ],
					"outlettype" : [ "" ],
					"id" : "obj-12",
					"fontname" : "Arial",
					"fontsize" : 12.0
				}

			}
, 			{
				"box" : 				{
					"maxclass" : "newobj",
					"text" : "s #0size",
					"numinlets" : 1,
					"numoutlets" : 0,
					"patching_rect" : [ 394.0, 107.0, 55.0, 20.0 ],
					"id" : "obj-13",
					"fontname" : "Arial",
					"fontsize" : 12.0
				}

			}
, 			{
				"box" : 				{
					"maxclass" : "newobj",
					"text" : "r #0size",
					"numinlets" : 0,
					"numoutlets" : 1,
					"patching_rect" : [ 100.0, 466.0, 53.0, 20.0 ],
					"outlettype" : [ "" ],
					"id" : "obj-14",
					"fontname" : "Arial",
					"fontsize" : 12.0
				}

			}
, 			{
				"box" : 				{
					"maxclass" : "newobj",
					"text" : "r #0size",
					"numinlets" : 0,
					"numoutlets" : 1,
					"patching_rect" : [ 137.0, 137.0, 53.0, 20.0 ],
					"outlettype" : [ "" ],
					"id" : "obj-15",
					"fontname" : "Arial",
					"fontsize" : 12.0
				}

			}
, 			{
				"box" : 				{
					"maxclass" : "newobj",
					"text" : "r #0size",
					"numinlets" : 0,
					"numoutlets" : 1,
					"patching_rect" : [ 40.0, 8.0, 53.0, 20.0 ],
					"outlettype" : [ "" ],
					"id" : "obj-16",
					"fontname" : "Arial",
					"fontsize" : 12.0
				}

			}
, 			{
				"box" : 				{
					"maxclass" : "number",
					"numinlets" : 1,
					"numoutlets" : 2,
					"htextcolor" : [ 0.870588, 0.870588, 0.870588, 1.0 ],
					"patching_rect" : [ 394.0, 37.0, 44.0, 20.0 ],
					"outlettype" : [ "int", "bang" ],
					"id" : "obj-17",
					"fontname" : "Arial",
					"bgcolor" : [ 0.866667, 0.866667, 0.866667, 1.0 ],
					"triscale" : 0.9,
					"fontsize" : 12.0
				}

			}
, 			{
				"box" : 				{
					"maxclass" : "message",
					"text" : "sizeinsamps $1",
					"numinlets" : 2,
					"numoutlets" : 1,
					"patching_rect" : [ 40.0, 46.0, 93.0, 18.0 ],
					"outlettype" : [ "" ],
					"id" : "obj-18",
					"fontname" : "Arial",
					"fontsize" : 12.0
				}

			}
, 			{
				"box" : 				{
					"maxclass" : "message",
					"text" : "#1",
					"numinlets" : 2,
					"numoutlets" : 1,
					"patching_rect" : [ 329.0, 36.0, 32.5, 18.0 ],
					"outlettype" : [ "" ],
					"id" : "obj-20",
					"fontname" : "Arial",
					"fontsize" : 12.0
				}

			}
, 			{
				"box" : 				{
					"maxclass" : "newobj",
					"text" : "loadbang",
					"numinlets" : 1,
					"numoutlets" : 1,
					"patching_rect" : [ 329.0, 9.0, 60.0, 20.0 ],
					"outlettype" : [ "bang" ],
					"id" : "obj-21",
					"fontname" : "Arial",
					"fontsize" : 12.0
				}

			}
, 			{
				"box" : 				{
					"maxclass" : "newobj",
					"text" : "sel 0.",
					"numinlets" : 1,
					"numoutlets" : 2,
					"patching_rect" : [ 177.0, 486.0, 39.0, 20.0 ],
					"outlettype" : [ "bang", "" ],
					"id" : "obj-22",
					"fontname" : "Arial",
					"fontsize" : 12.0
				}

			}
, 			{
				"box" : 				{
					"maxclass" : "newobj",
					"text" : "peek~ #0temp",
					"numinlets" : 3,
					"numoutlets" : 1,
					"patching_rect" : [ 110.0, 628.0, 87.0, 20.0 ],
					"outlettype" : [ "float" ],
					"id" : "obj-23",
					"fontname" : "Arial",
					"fontsize" : 12.0
				}

			}
, 			{
				"box" : 				{
					"maxclass" : "newobj",
					"text" : "* 1.",
					"numinlets" : 2,
					"numoutlets" : 1,
					"patching_rect" : [ 127.0, 594.0, 32.5, 20.0 ],
					"outlettype" : [ "float" ],
					"id" : "obj-24",
					"fontname" : "Arial",
					"fontsize" : 12.0
				}

			}
, 			{
				"box" : 				{
					"maxclass" : "newobj",
					"text" : "t i i",
					"numinlets" : 1,
					"numoutlets" : 2,
					"patching_rect" : [ 110.0, 537.0, 32.5, 20.0 ],
					"outlettype" : [ "int", "int" ],
					"id" : "obj-25",
					"fontname" : "Arial",
					"fontsize" : 12.0
				}

			}
, 			{
				"box" : 				{
					"maxclass" : "newobj",
					"text" : "- 1",
					"numinlets" : 2,
					"numoutlets" : 1,
					"patching_rect" : [ 110.0, 515.0, 32.5, 20.0 ],
					"outlettype" : [ "int" ],
					"id" : "obj-26",
					"fontname" : "Arial",
					"fontsize" : 12.0
				}

			}
, 			{
				"box" : 				{
					"maxclass" : "newobj",
					"text" : "uzi",
					"numinlets" : 2,
					"numoutlets" : 3,
					"patching_rect" : [ 62.0, 487.0, 46.0, 20.0 ],
					"outlettype" : [ "bang", "bang", "int" ],
					"id" : "obj-27",
					"fontname" : "Arial",
					"fontsize" : 12.0
				}

			}
, 			{
				"box" : 				{
					"maxclass" : "newobj",
					"text" : "peek~ #0temp",
					"numinlets" : 3,
					"numoutlets" : 1,
					"patching_rect" : [ 127.0, 565.0, 87.0, 20.0 ],
					"outlettype" : [ "float" ],
					"id" : "obj-28",
					"fontname" : "Arial",
					"fontsize" : 12.0
				}

			}
, 			{
				"box" : 				{
					"maxclass" : "newobj",
					"text" : "t b b",
					"numinlets" : 1,
					"numoutlets" : 2,
					"patching_rect" : [ 108.0, 431.0, 34.0, 20.0 ],
					"outlettype" : [ "bang", "bang" ],
					"id" : "obj-29",
					"fontname" : "Arial",
					"fontsize" : 12.0
				}

			}
, 			{
				"box" : 				{
					"maxclass" : "newobj",
					"text" : "!/ 1.",
					"numinlets" : 2,
					"numoutlets" : 1,
					"patching_rect" : [ 198.0, 512.0, 32.5, 20.0 ],
					"outlettype" : [ "float" ],
					"id" : "obj-30",
					"fontname" : "Arial",
					"fontsize" : 12.0
				}

			}
, 			{
				"box" : 				{
					"maxclass" : "newobj",
					"text" : "0.",
					"numinlets" : 2,
					"numoutlets" : 1,
					"patching_rect" : [ 177.0, 461.0, 32.5, 20.0 ],
					"outlettype" : [ "float" ],
					"id" : "obj-31",
					"fontname" : "Arial",
					"fontsize" : 12.0
				}

			}
, 			{
				"box" : 				{
					"maxclass" : "message",
					"text" : "0",
					"numinlets" : 2,
					"numoutlets" : 1,
					"patching_rect" : [ 372.0, 305.0, 32.5, 18.0 ],
					"outlettype" : [ "" ],
					"id" : "obj-32",
					"fontname" : "Arial",
					"fontsize" : 12.0
				}

			}
, 			{
				"box" : 				{
					"maxclass" : "newobj",
					"text" : "abs 0.",
					"numinlets" : 1,
					"numoutlets" : 1,
					"patching_rect" : [ 215.0, 384.0, 43.0, 20.0 ],
					"outlettype" : [ "float" ],
					"id" : "obj-33",
					"fontname" : "Arial",
					"fontsize" : 12.0
				}

			}
, 			{
				"box" : 				{
					"maxclass" : "newobj",
					"text" : "peak 0.",
					"numinlets" : 2,
					"numoutlets" : 3,
					"patching_rect" : [ 215.0, 409.0, 50.0, 20.0 ],
					"outlettype" : [ "float", "int", "int" ],
					"id" : "obj-34",
					"fontname" : "Arial",
					"fontsize" : 12.0
				}

			}
, 			{
				"box" : 				{
					"maxclass" : "newobj",
					"text" : "t i b",
					"numinlets" : 1,
					"numoutlets" : 2,
					"patching_rect" : [ 124.0, 335.0, 32.5, 20.0 ],
					"outlettype" : [ "int", "bang" ],
					"id" : "obj-35",
					"fontname" : "Arial",
					"fontsize" : 12.0
				}

			}
, 			{
				"box" : 				{
					"maxclass" : "newobj",
					"text" : "iter",
					"numinlets" : 1,
					"numoutlets" : 1,
					"patching_rect" : [ 139.0, 308.0, 27.0, 20.0 ],
					"outlettype" : [ "" ],
					"id" : "obj-36",
					"fontname" : "Arial",
					"fontsize" : 12.0
				}

			}
, 			{
				"box" : 				{
					"maxclass" : "message",
					"text" : "set 0",
					"numinlets" : 2,
					"numoutlets" : 1,
					"patching_rect" : [ 168.0, 310.0, 37.0, 18.0 ],
					"outlettype" : [ "" ],
					"id" : "obj-37",
					"fontname" : "Arial",
					"fontsize" : 12.0
				}

			}
, 			{
				"box" : 				{
					"maxclass" : "newobj",
					"text" : "accum 0.",
					"numinlets" : 3,
					"numoutlets" : 1,
					"patching_rect" : [ 168.0, 360.0, 59.0, 20.0 ],
					"outlettype" : [ "float" ],
					"id" : "obj-38",
					"fontname" : "Arial",
					"fontsize" : 12.0
				}

			}
, 			{
				"box" : 				{
					"maxclass" : "newobj",
					"text" : "buffer~ #0temp",
					"numinlets" : 1,
					"numoutlets" : 2,
					"patching_rect" : [ 40.0, 72.0, 91.0, 20.0 ],
					"outlettype" : [ "float", "bang" ],
					"id" : "obj-39",
					"fontname" : "Arial",
					"fontsize" : 12.0
				}

			}
, 			{
				"box" : 				{
					"maxclass" : "newobj",
					"text" : "peek~ #0temp",
					"numinlets" : 3,
					"numoutlets" : 1,
					"patching_rect" : [ 117.0, 409.0, 87.0, 20.0 ],
					"outlettype" : [ "float" ],
					"id" : "obj-40",
					"fontname" : "Arial",
					"fontsize" : 12.0
				}

			}
, 			{
				"box" : 				{
					"maxclass" : "newobj",
					"text" : "t i i b",
					"numinlets" : 1,
					"numoutlets" : 3,
					"patching_rect" : [ 124.0, 216.0, 46.0, 20.0 ],
					"outlettype" : [ "int", "int", "bang" ],
					"id" : "obj-41",
					"fontname" : "Arial",
					"fontsize" : 12.0
				}

			}
, 			{
				"box" : 				{
					"maxclass" : "newobj",
					"text" : "- 1",
					"numinlets" : 2,
					"numoutlets" : 1,
					"patching_rect" : [ 124.0, 193.0, 32.5, 20.0 ],
					"outlettype" : [ "int" ],
					"id" : "obj-42",
					"fontname" : "Arial",
					"fontsize" : 12.0
				}

			}
, 			{
				"box" : 				{
					"maxclass" : "newobj",
					"text" : "loadbang",
					"numinlets" : 1,
					"numoutlets" : 1,
					"patching_rect" : [ 35.0, 222.0, 60.0, 20.0 ],
					"outlettype" : [ "bang" ],
					"id" : "obj-43",
					"fontname" : "Arial",
					"fontsize" : 12.0
				}

			}
, 			{
				"box" : 				{
					"maxclass" : "message",
					"text" : "scalarmode 1",
					"numinlets" : 2,
					"numoutlets" : 1,
					"patching_rect" : [ 35.0, 243.0, 83.0, 18.0 ],
					"outlettype" : [ "" ],
					"id" : "obj-44",
					"fontname" : "Arial",
					"fontsize" : 12.0
				}

			}
, 			{
				"box" : 				{
					"maxclass" : "newobj",
					"text" : "uzi",
					"numinlets" : 2,
					"numoutlets" : 3,
					"patching_rect" : [ 85.0, 160.0, 46.0, 20.0 ],
					"outlettype" : [ "bang", "bang", "int" ],
					"id" : "obj-45",
					"fontname" : "Arial",
					"fontsize" : 12.0
				}

			}
, 			{
				"box" : 				{
					"maxclass" : "newobj",
					"text" : "zl group",
					"numinlets" : 2,
					"numoutlets" : 2,
					"patching_rect" : [ 236.0, 219.0, 53.0, 20.0 ],
					"outlettype" : [ "", "" ],
					"id" : "obj-46",
					"fontname" : "Arial",
					"fontsize" : 12.0
				}

			}
, 			{
				"box" : 				{
					"maxclass" : "newobj",
					"text" : "uzi",
					"numinlets" : 2,
					"numoutlets" : 3,
					"patching_rect" : [ 229.0, 189.0, 46.0, 20.0 ],
					"outlettype" : [ "bang", "bang", "int" ],
					"id" : "obj-47",
					"fontname" : "Arial",
					"fontsize" : 12.0
				}

			}
, 			{
				"box" : 				{
					"maxclass" : "newobj",
					"text" : "t i i",
					"numinlets" : 1,
					"numoutlets" : 2,
					"patching_rect" : [ 254.0, 160.0, 32.5, 20.0 ],
					"outlettype" : [ "int", "int" ],
					"id" : "obj-48",
					"fontname" : "Arial",
					"fontsize" : 12.0
				}

			}
, 			{
				"box" : 				{
					"maxclass" : "newobj",
					"text" : "t b l l b",
					"numinlets" : 1,
					"numoutlets" : 4,
					"patching_rect" : [ 239.0, 58.0, 59.5, 20.0 ],
					"outlettype" : [ "bang", "", "", "bang" ],
					"id" : "obj-49",
					"fontname" : "Arial",
					"fontsize" : 12.0
				}

			}
, 			{
				"box" : 				{
					"maxclass" : "newobj",
					"text" : "zl len",
					"numinlets" : 2,
					"numoutlets" : 2,
					"patching_rect" : [ 254.0, 134.0, 39.0, 20.0 ],
					"outlettype" : [ "", "" ],
					"id" : "obj-50",
					"fontname" : "Arial",
					"fontsize" : 12.0
				}

			}
, 			{
				"box" : 				{
					"maxclass" : "newobj",
					"text" : "vexpr sin($f1*3.141593*$f2/$f3+$f5*6.283785)*$f4",
					"numinlets" : 5,
					"numoutlets" : 1,
					"patching_rect" : [ 139.0, 275.0, 279.0, 20.0 ],
					"outlettype" : [ "" ],
					"id" : "obj-51",
					"fontname" : "Arial",
					"fontsize" : 12.0
				}

			}
 ],
		"lines" : [ 			{
				"patchline" : 				{
					"source" : [ "obj-18", 0 ],
					"destination" : [ "obj-39", 0 ],
					"hidden" : 0,
					"midpoints" : [  ]
				}

			}
, 			{
				"patchline" : 				{
					"source" : [ "obj-43", 0 ],
					"destination" : [ "obj-44", 0 ],
					"hidden" : 0,
					"midpoints" : [  ]
				}

			}
, 			{
				"patchline" : 				{
					"source" : [ "obj-25", 0 ],
					"destination" : [ "obj-6", 0 ],
					"hidden" : 0,
					"midpoints" : [  ]
				}

			}
, 			{
				"patchline" : 				{
					"source" : [ "obj-29", 0 ],
					"destination" : [ "obj-27", 0 ],
					"hidden" : 0,
					"midpoints" : [  ]
				}

			}
, 			{
				"patchline" : 				{
					"source" : [ "obj-49", 0 ],
					"destination" : [ "obj-45", 0 ],
					"hidden" : 0,
					"midpoints" : [  ]
				}

			}
, 			{
				"patchline" : 				{
					"source" : [ "obj-45", 1 ],
					"destination" : [ "obj-29", 0 ],
					"hidden" : 0,
					"midpoints" : [  ]
				}

			}
, 			{
				"patchline" : 				{
					"source" : [ "obj-14", 0 ],
					"destination" : [ "obj-27", 1 ],
					"hidden" : 0,
					"midpoints" : [  ]
				}

			}
, 			{
				"patchline" : 				{
					"source" : [ "obj-27", 2 ],
					"destination" : [ "obj-26", 0 ],
					"hidden" : 0,
					"midpoints" : [  ]
				}

			}
, 			{
				"patchline" : 				{
					"source" : [ "obj-26", 0 ],
					"destination" : [ "obj-25", 0 ],
					"hidden" : 0,
					"midpoints" : [  ]
				}

			}
, 			{
				"patchline" : 				{
					"source" : [ "obj-25", 0 ],
					"destination" : [ "obj-23", 0 ],
					"hidden" : 0,
					"midpoints" : [  ]
				}

			}
, 			{
				"patchline" : 				{
					"source" : [ "obj-35", 0 ],
					"destination" : [ "obj-40", 0 ],
					"hidden" : 0,
					"midpoints" : [  ]
				}

			}
, 			{
				"patchline" : 				{
					"source" : [ "obj-45", 2 ],
					"destination" : [ "obj-42", 0 ],
					"hidden" : 0,
					"midpoints" : [  ]
				}

			}
, 			{
				"patchline" : 				{
					"source" : [ "obj-42", 0 ],
					"destination" : [ "obj-41", 0 ],
					"hidden" : 0,
					"midpoints" : [  ]
				}

			}
, 			{
				"patchline" : 				{
					"source" : [ "obj-41", 0 ],
					"destination" : [ "obj-35", 0 ],
					"hidden" : 0,
					"midpoints" : [  ]
				}

			}
, 			{
				"patchline" : 				{
					"source" : [ "obj-25", 1 ],
					"destination" : [ "obj-28", 0 ],
					"hidden" : 0,
					"midpoints" : [  ]
				}

			}
, 			{
				"patchline" : 				{
					"source" : [ "obj-28", 0 ],
					"destination" : [ "obj-24", 0 ],
					"hidden" : 0,
					"midpoints" : [  ]
				}

			}
, 			{
				"patchline" : 				{
					"source" : [ "obj-15", 0 ],
					"destination" : [ "obj-45", 1 ],
					"hidden" : 0,
					"midpoints" : [  ]
				}

			}
, 			{
				"patchline" : 				{
					"source" : [ "obj-24", 0 ],
					"destination" : [ "obj-5", 0 ],
					"hidden" : 0,
					"midpoints" : [  ]
				}

			}
, 			{
				"patchline" : 				{
					"source" : [ "obj-44", 0 ],
					"destination" : [ "obj-51", 0 ],
					"hidden" : 0,
					"midpoints" : [  ]
				}

			}
, 			{
				"patchline" : 				{
					"source" : [ "obj-41", 1 ],
					"destination" : [ "obj-51", 0 ],
					"hidden" : 0,
					"midpoints" : [  ]
				}

			}
, 			{
				"patchline" : 				{
					"source" : [ "obj-51", 0 ],
					"destination" : [ "obj-36", 0 ],
					"hidden" : 0,
					"midpoints" : [  ]
				}

			}
, 			{
				"patchline" : 				{
					"source" : [ "obj-24", 0 ],
					"destination" : [ "obj-23", 1 ],
					"hidden" : 0,
					"midpoints" : [  ]
				}

			}
, 			{
				"patchline" : 				{
					"source" : [ "obj-38", 0 ],
					"destination" : [ "obj-40", 1 ],
					"hidden" : 0,
					"midpoints" : [  ]
				}

			}
, 			{
				"patchline" : 				{
					"source" : [ "obj-41", 2 ],
					"destination" : [ "obj-37", 0 ],
					"hidden" : 0,
					"midpoints" : [  ]
				}

			}
, 			{
				"patchline" : 				{
					"source" : [ "obj-35", 1 ],
					"destination" : [ "obj-38", 0 ],
					"hidden" : 0,
					"midpoints" : [  ]
				}

			}
, 			{
				"patchline" : 				{
					"source" : [ "obj-37", 0 ],
					"destination" : [ "obj-38", 0 ],
					"hidden" : 0,
					"midpoints" : [  ]
				}

			}
, 			{
				"patchline" : 				{
					"source" : [ "obj-29", 1 ],
					"destination" : [ "obj-31", 0 ],
					"hidden" : 0,
					"midpoints" : [  ]
				}

			}
, 			{
				"patchline" : 				{
					"source" : [ "obj-31", 0 ],
					"destination" : [ "obj-22", 0 ],
					"hidden" : 0,
					"midpoints" : [  ]
				}

			}
, 			{
				"patchline" : 				{
					"source" : [ "obj-36", 0 ],
					"destination" : [ "obj-38", 1 ],
					"hidden" : 0,
					"midpoints" : [  ]
				}

			}
, 			{
				"patchline" : 				{
					"source" : [ "obj-34", 0 ],
					"destination" : [ "obj-31", 1 ],
					"hidden" : 0,
					"midpoints" : [  ]
				}

			}
, 			{
				"patchline" : 				{
					"source" : [ "obj-22", 1 ],
					"destination" : [ "obj-30", 0 ],
					"hidden" : 0,
					"midpoints" : [  ]
				}

			}
, 			{
				"patchline" : 				{
					"source" : [ "obj-46", 0 ],
					"destination" : [ "obj-51", 1 ],
					"hidden" : 0,
					"midpoints" : [  ]
				}

			}
, 			{
				"patchline" : 				{
					"source" : [ "obj-30", 0 ],
					"destination" : [ "obj-24", 1 ],
					"hidden" : 0,
					"midpoints" : [  ]
				}

			}
, 			{
				"patchline" : 				{
					"source" : [ "obj-38", 0 ],
					"destination" : [ "obj-33", 0 ],
					"hidden" : 0,
					"midpoints" : [  ]
				}

			}
, 			{
				"patchline" : 				{
					"source" : [ "obj-33", 0 ],
					"destination" : [ "obj-34", 0 ],
					"hidden" : 0,
					"midpoints" : [  ]
				}

			}
, 			{
				"patchline" : 				{
					"source" : [ "obj-27", 1 ],
					"destination" : [ "obj-4", 0 ],
					"hidden" : 0,
					"color" : [ 1.0, 0.890196, 0.090196, 1.0 ],
					"midpoints" : [  ]
				}

			}
, 			{
				"patchline" : 				{
					"source" : [ "obj-48", 0 ],
					"destination" : [ "obj-47", 0 ],
					"hidden" : 0,
					"midpoints" : [  ]
				}

			}
, 			{
				"patchline" : 				{
					"source" : [ "obj-47", 2 ],
					"destination" : [ "obj-46", 0 ],
					"hidden" : 0,
					"midpoints" : [  ]
				}

			}
, 			{
				"patchline" : 				{
					"source" : [ "obj-10", 0 ],
					"destination" : [ "obj-49", 0 ],
					"hidden" : 0,
					"midpoints" : [  ]
				}

			}
, 			{
				"patchline" : 				{
					"source" : [ "obj-49", 1 ],
					"destination" : [ "obj-50", 0 ],
					"hidden" : 0,
					"midpoints" : [  ]
				}

			}
, 			{
				"patchline" : 				{
					"source" : [ "obj-50", 0 ],
					"destination" : [ "obj-48", 0 ],
					"hidden" : 0,
					"midpoints" : [  ]
				}

			}
, 			{
				"patchline" : 				{
					"source" : [ "obj-32", 0 ],
					"destination" : [ "obj-34", 1 ],
					"hidden" : 0,
					"midpoints" : [  ]
				}

			}
, 			{
				"patchline" : 				{
					"source" : [ "obj-11", 0 ],
					"destination" : [ "obj-51", 2 ],
					"hidden" : 0,
					"midpoints" : [  ]
				}

			}
, 			{
				"patchline" : 				{
					"source" : [ "obj-48", 1 ],
					"destination" : [ "obj-46", 1 ],
					"hidden" : 0,
					"midpoints" : [  ]
				}

			}
, 			{
				"patchline" : 				{
					"source" : [ "obj-12", 0 ],
					"destination" : [ "obj-11", 0 ],
					"hidden" : 0,
					"midpoints" : [  ]
				}

			}
, 			{
				"patchline" : 				{
					"source" : [ "obj-49", 2 ],
					"destination" : [ "obj-51", 3 ],
					"hidden" : 0,
					"midpoints" : [  ]
				}

			}
, 			{
				"patchline" : 				{
					"source" : [ "obj-21", 0 ],
					"destination" : [ "obj-20", 0 ],
					"hidden" : 0,
					"midpoints" : [  ]
				}

			}
, 			{
				"patchline" : 				{
					"source" : [ "obj-20", 0 ],
					"destination" : [ "obj-8", 0 ],
					"hidden" : 0,
					"midpoints" : [  ]
				}

			}
, 			{
				"patchline" : 				{
					"source" : [ "obj-8", 0 ],
					"destination" : [ "obj-7", 0 ],
					"hidden" : 0,
					"midpoints" : [  ]
				}

			}
, 			{
				"patchline" : 				{
					"source" : [ "obj-49", 3 ],
					"destination" : [ "obj-32", 0 ],
					"hidden" : 0,
					"midpoints" : [  ]
				}

			}
, 			{
				"patchline" : 				{
					"source" : [ "obj-9", 0 ],
					"destination" : [ "obj-17", 0 ],
					"hidden" : 0,
					"midpoints" : [  ]
				}

			}
, 			{
				"patchline" : 				{
					"source" : [ "obj-17", 0 ],
					"destination" : [ "obj-13", 0 ],
					"hidden" : 0,
					"midpoints" : [  ]
				}

			}
, 			{
				"patchline" : 				{
					"source" : [ "obj-8", 1 ],
					"destination" : [ "obj-13", 0 ],
					"hidden" : 0,
					"midpoints" : [  ]
				}

			}
, 			{
				"patchline" : 				{
					"source" : [ "obj-7", 0 ],
					"destination" : [ "obj-13", 0 ],
					"hidden" : 0,
					"midpoints" : [  ]
				}

			}
, 			{
				"patchline" : 				{
					"source" : [ "obj-2", 0 ],
					"destination" : [ "obj-51", 4 ],
					"hidden" : 0,
					"midpoints" : [  ]
				}

			}
, 			{
				"patchline" : 				{
					"source" : [ "obj-3", 0 ],
					"destination" : [ "obj-51", 4 ],
					"hidden" : 0,
					"midpoints" : [ 491.5, 229.0 ]
				}

			}
, 			{
				"patchline" : 				{
					"source" : [ "obj-16", 0 ],
					"destination" : [ "obj-18", 0 ],
					"hidden" : 0,
					"midpoints" : [  ]
				}

			}
, 			{
				"patchline" : 				{
					"source" : [ "obj-53", 0 ],
					"destination" : [ "obj-52", 0 ],
					"hidden" : 1,
					"midpoints" : [  ]
				}

			}
, 			{
				"patchline" : 				{
					"source" : [ "obj-55", 0 ],
					"destination" : [ "obj-54", 0 ],
					"hidden" : 1,
					"midpoints" : [  ]
				}

			}
 ]
	}

}
